<?xml version="1.0" encoding="utf-8"?>
<!-- Generator: Adobe Illustrator 17.0.0, SVG Export Plug-In . SVG Version: 6.00 Build 0)  -->
<!DOCTYPE svg PUBLIC "-//W3C//DTD SVG 1.1//EN" "http://www.w3.org/Graphics/SVG/1.1/DTD/svg11.dtd">
<svg version="1.1" id="Layer_1" xmlns="http://www.w3.org/2000/svg" xmlns:xlink="http://www.w3.org/1999/xlink" x="0px" y="0px"
	 width="15px" height="15px" viewBox="0 0 15 15" enable-background="new 0 0 15 15" xml:space="preserve">
<g>
	<path fill="#EBEBEB" d="M13.091,7.5V5.185H7.534H1.977V7.5c0,0-2.33,1.588,0.471,4.495c-0.003,0.045-0.007,0.09-0.007,0.136
		c0,1.279,1.14,2.315,2.547,2.315s2.547-1.037,2.547-2.315c0,1.279,1.14,2.315,2.547,2.315s2.547-1.037,2.547-2.315
		c0-0.046-0.005-0.091-0.007-0.136C15.421,9.088,13.091,7.5,13.091,7.5z"/>
	<path fill="#EBEBEB" d="M9.626,0.554H5.443c-1.914,0-3.465,1.551-3.465,3.465v0.239h11.114V4.019
		C13.091,2.105,11.54,0.554,9.626,0.554z"/>
	<path fill="#323232" d="M3.83,7.5c-0.926,0-0.926-1.852-0.926-1.852h3.705C6.608,5.648,4.756,7.5,3.83,7.5z"/>
	<circle fill="#323232" cx="10.081" cy="12.825" r="0.695"/>
	<circle fill="#323232" cx="4.987" cy="12.825" r="0.695"/>
	<path fill="#323232" d="M11.239,7.5c-0.926,0-2.778-1.852-2.778-1.852h3.705C12.165,5.648,12.165,7.5,11.239,7.5z"/>
	<path fill="#323232" d="M7.997,12.131v-0.463c0-0.256-0.207-0.463-0.463-0.463c-0.256,0-0.463,0.207-0.463,0.463v0.463
		c-0.256,0-0.463,0.207-0.463,0.463v0.926c0,0.256,0.207,0.463,0.463,0.463v0c0,0.256,0.207,0.463,0.463,0.463
		c0.256,0,0.463-0.207,0.463-0.463v0c0.256,0,0.463-0.207,0.463-0.463v-0.926C8.46,12.338,8.253,12.131,7.997,12.131z"/>
	<path opacity="0.5" fill="#FFFFFF" d="M2.897,4.722c-0.12,0-0.217-0.097-0.217-0.217c0-1.791,1.457-3.248,3.248-3.248
		c0.12,0,0.217,0.097,0.217,0.217S6.048,1.69,5.928,1.69c-1.552,0-2.815,1.263-2.815,2.815C3.114,4.625,3.017,4.722,2.897,4.722z"/>
	<rect x="1.977" y="4.258" fill="#323232" width="11.114" height="0.926"/>
	<path fill="#505150" d="M11.123,9.584c0,0-0.268-0.029-0.805-0.255C10.036,9.21,9.7,8.966,9.345,8.706
		C8.99,8.448,8.585,8.181,8.202,8.058c-0.2-0.064-0.439-0.093-0.668-0.095c-0.229,0.002-0.468,0.03-0.668,0.095
		c-0.383,0.123-0.788,0.39-1.143,0.648C5.369,8.966,5.032,9.21,4.751,9.329C4.213,9.555,3.945,9.584,3.945,9.584
		C3.881,9.584,3.83,9.636,3.83,9.7c0,0.064,0.052,0.116,0.116,0.116h0.347c0,0,0.087-0.005,0.184-0.014
		c0.088-0.006,0.268-0.039,0.434-0.089c0.351-0.095,0.772-0.305,1.16-0.505C6.46,9.007,6.836,8.849,7.103,8.809
		c0.174-0.03,0.306-0.043,0.431-0.043c0.125,0,0.256,0.014,0.431,0.043c0.268,0.04,0.643,0.198,1.032,0.399
		c0.389,0.2,0.809,0.41,1.16,0.505c0.166,0.05,0.346,0.082,0.434,0.089c0.097,0.009,0.184,0.014,0.184,0.014h0.347
		c0.064,0,0.116-0.052,0.116-0.116C11.239,9.636,11.187,9.584,11.123,9.584z"/>
	<g>
		<path fill="#323232" d="M9.387,9.402C9.543,9.478,9.699,9.549,9.85,9.608V9.064C9.702,8.966,9.546,8.853,9.387,8.737V9.402z"/>
		<path fill="#323232" d="M7.997,8.816C8.131,8.84,8.288,8.889,8.46,8.958V8.162c-0.087-0.04-0.173-0.077-0.258-0.104
			c-0.064-0.02-0.135-0.031-0.205-0.045V8.816z"/>
	</g>
	<g>
		<path fill="#323232" d="M5.682,9.402C5.525,9.478,5.369,9.549,5.219,9.608V9.064c0.148-0.098,0.304-0.211,0.463-0.328V9.402z"/>
		<path fill="#323232" d="M7.071,8.816C6.937,8.84,6.78,8.889,6.608,8.958V8.162c0.087-0.04,0.173-0.077,0.258-0.104
			c0.064-0.02,0.135-0.031,0.205-0.045V8.816z"/>
	</g>
</g>
</svg>
