<?xml version="1.0" encoding="utf-8"?>
<!-- Generator: Adobe Illustrator 17.0.0, SVG Export Plug-In . SVG Version: 6.00 Build 0)  -->
<!DOCTYPE svg PUBLIC "-//W3C//DTD SVG 1.1//EN" "http://www.w3.org/Graphics/SVG/1.1/DTD/svg11.dtd">
<svg version="1.1" id="Layer_1" xmlns="http://www.w3.org/2000/svg" xmlns:xlink="http://www.w3.org/1999/xlink" x="0px" y="0px"
	 width="350px" height="60px" viewBox="0 0 350 60" enable-background="new 0 0 350 60" xml:space="preserve">
<path fill-rule="evenodd" clip-rule="evenodd" fill="#FFFFFF" d="M7.669,36.176v11.641c0,0,30.092,0,34.05,0
	c3.958,0,9.014-3.66,9.014-9.713c0-2.435,0.931-4.023-1.931-7.243l-4.356-5.161c-2.495-2.328,0.298-2.328,2.394-2.328
	c1.164,0,14.376,0,14.376,0v24.446h11.401V23.371h15.366V12.902H38.227c-6.053,0-9.014,5.813-8.847,8.84
	c0.167,3.027,0.724,6.834,5.755,11.408c4.588,4.171-2.272,3.027-2.961,3.027C28.681,36.176,7.669,36.176,7.669,36.176L7.669,36.176z
	"/>
<path fill-rule="evenodd" clip-rule="evenodd" fill="#FFFFFF" d="M113.194,12.902H94.801L84.492,47.817h11.474l1.862-4.889h12.107
	l1.797,4.889h11.241L113.194,12.902L113.194,12.902z M100.389,34.546l3.958-12.805l3.725,12.805H100.389L100.389,34.546z"/>
<path fill-rule="evenodd" clip-rule="evenodd" fill="#FFFFFF" d="M159.292,36.176c-4.424,0-4.424-1.63-4.424-1.63
	c3.791,0,7.152-5.522,7.152-11.175c0-5.653-5.522-10.469-9.946-10.469c-4.424,0-24.744,0-24.744,0v34.915h12.572V36.176
	c0,0,5.355,6.286,8.149,8.847c2.794,2.561,3.027,2.794,6.817,2.794c3.791,0,19.738,0,19.738,0V36.176
	C174.606,36.176,163.715,36.176,159.292,36.176L159.292,36.176z M147.883,28.028c-3.194,0-7.981,0-7.981,0v-6.286
	c0,0,5.42,0,7.981,0C151.542,21.742,152.174,28.028,147.883,28.028L147.883,28.028z"/>
<polygon fill-rule="evenodd" clip-rule="evenodd" fill="#FFFFFF" points="175.063,12.673 187.926,12.673 191.186,24.314 
	194.212,12.673 207.715,12.673 211.208,24.314 214.7,12.673 225.875,12.673 215.631,47.595 205.387,47.595 200.898,31.065 
	195.842,47.595 185.365,47.595 175.063,12.673 "/>
<path fill-rule="evenodd" clip-rule="evenodd" fill="#FFFFFF" d="M252.274,12.873h-18.393l-10.309,34.915h11.474l1.863-4.889h12.106
	l1.797,4.889h11.241L252.274,12.873L252.274,12.873z M239.47,34.518l3.958-12.805l3.725,12.805H239.47L239.47,34.518z"/>
<path fill-rule="evenodd" clip-rule="evenodd" fill="#FFFFFF" d="M326.918,23.15c-2.095,0-4.376,0.244-1.881,2.572l4.356,5.161
	c2.862,3.221,2.814,4.565,2.814,7c0,6.053-5.988,9.713-9.946,9.713l-27.509,0.185c-3.791,0-4.023-0.233-6.817-2.794
	c-2.794-2.561-8.148-8.847-8.148-8.847v11.641h-12.572V12.865c0,0,20.321,0,24.744,0c4.424,0,9.946,4.816,9.946,10.47
	s-3.361,11.175-7.152,11.175c0,0,1.666,1.677,4.46,1.677c2.794,0,13.551,0.011,13.551,0.011c0.689,0,7.549,1.145,2.961-3.027
	c-5.031-4.574-5.587-8.382-5.755-11.408c-0.167-3.027,2.448-9.091,8.501-9.091H342V23.15H326.918L326.918,23.15z M287.768,27.991
	c-3.194,0-7.981,0-7.981,0v-6.286c0,0,5.42,0,7.981,0C291.426,21.705,292.059,27.991,287.768,27.991L287.768,27.991z"/>
</svg>
